<?xml version="1.0" standalone="no"?><!DOCTYPE svg PUBLIC "-//W3C//DTD SVG 1.1//EN" "http://www.w3.org/Graphics/SVG/1.1/DTD/svg11.dtd"><svg t="1694247173981" class="icon" viewBox="0 0 1024 1024" version="1.1" xmlns="http://www.w3.org/2000/svg" p-id="27793" width="512" height="512" xmlns:xlink="http://www.w3.org/1999/xlink"><path d="M53.333333 512C53.333333 258.688 258.688 53.333333 512 53.333333S970.666667 258.688 970.666667 512 765.312 970.666667 512 970.666667 53.333333 765.312 53.333333 512zM512 117.333333a394.666667 394.666667 0 1 0 0 789.333334 394.666667 394.666667 0 0 0 0-789.333334z" fill="#2c2c2c" fill-opacity=".85" p-id="27794"></path><path d="M643.456 120.106667a31.957333 31.957333 0 0 0-34.517333-49.834667c-17.621333 5.034667-24.234667 20.053333-26.453334 27.221333a81.322667 81.322667 0 0 0-3.029333 23.850667c0 15.274667 2.56 35.413333 6.826667 59.392 4.224 23.381333 13.44 40.490667 25.984 53.418667 10.026667 10.368 21.76 17.28 28.928 21.504l2.688 1.578666c8.064 4.864 8.874667 6.357333 9.173333 6.826667 0.042667 0.128 2.432 4.096 0.128 18.688a42.154667 42.154667 0 0 1-3.584 12.714667 6.570667 6.570667 0 0 1-1.834667 2.474666c-1.109333 0.853333-4.352 2.474667-15.914666 3.541334-2.432 0.256-5.333333 0.426667-8.533334 0.597333-21.546667 1.322667-58.282667 3.541333-89.045333 30.293333-22.016 19.157333-28.16 44.458667-29.141333 66.304-0.810667 17.408 1.621333 36.48 3.626666 52.352l1.066667 8.448c2.304 19.285333 3.072 33.408 0.725333 44.373334a27.818667 27.818667 0 0 1-15.189333 20.48c-9.088 5.077333-18.517333 5.717333-31.146667 1.962666-13.866667-4.096-28.928-12.714667-46.677333-24.021333a1477.845333 1477.845333 0 0 1-8.576-5.546667c-14.336-9.258667-30.72-19.882667-46.122667-26.88-18.858667-8.405333-45.610667-15.786667-71.936-1.450666-22.186667 12.117333-34.005333 31.701333-40.533333 50.517333-6.229333 18.133333-8.533333 38.144-10.069333 54.784l-0.896 10.24a319.573333 319.573333 0 0 1-4.266667 34.688c-2.56 12.629333-5.717333 17.194667-7.424 18.773333-9.941333 9.045333-33.536 15.658667-87.808-6.101333a32 32 0 1 0-23.808 59.434667c58.026667 23.253333 115.285333 29.866667 154.752-6.058667 16.810667-15.36 23.509333-36.266667 27.008-53.248 2.858667-14.037333 4.266667-29.738667 5.418667-43.392l0.768-8.362667c1.578667-16.725333 3.370667-29.781333 6.826666-39.850666 3.285333-9.386667 6.954667-13.226667 10.666667-15.232 0.213333-0.128 0.725333-0.426667 2.56-0.256 2.389333 0.213333 6.4 1.194667 12.458667 3.925333 10.581333 4.736 21.76 11.946667 35.882666 21.12 3.413333 2.133333 6.954667 4.437333 10.666667 6.826667 17.749333 11.306667 39.552 24.533333 62.933333 31.488 24.533333 7.253333 52.650667 8.106667 80.512-7.466667a91.562667 91.562667 0 0 0 46.549334-62.933333c4.864-22.613333 2.517333-46.506667 0.256-65.408l-1.28-10.453334c-1.962667-15.914667-3.541333-28.416-2.986667-39.850666 0.554667-12.629333 3.541333-17.749333 7.168-20.906667 13.312-11.52 26.453333-12.586667 48.128-14.336 4.181333-0.298667 8.661333-0.682667 13.525333-1.109333 12.970667-1.28 31.786667-3.84 48.042667-15.914667 17.578667-13.098667 26.752-32.853333 30.464-56.661333 3.541333-22.528 2.090667-42.538667-7.424-59.605334-9.173333-16.597333-23.466667-25.429333-32-30.592l-3.584-2.133333c-7.637333-4.565333-11.52-6.912-15.189333-10.666667-2.986667-3.157333-6.826667-8.405333-8.96-20.224-4.096-23.04-5.802667-38.656-5.802667-48.085333v-1.237333zM763.093333 642.218667c-28.928-12.8-48.170667-11.392-62.08-4.096-15.872 8.32-23.637333 15.786667-27.648 21.248a32.213333 32.213333 0 0 0-6.144 16.213333 117.546667 117.546667 0 0 0-0.170666 18.858667l0.256 6.272c0.298667 9.685333 0.597333 24.32-4.821334 38.912-8.106667 21.930667-22.272 34.645333-31.189333 42.666666-1.28 1.109333-2.432 2.133333-3.413333 3.114667-7.637333 7.125333-15.146667 15.061333-21.504 35.029333-5.845333 18.432-1.066667 44.501333 35.584 82.048a32 32 0 1 1-45.781334 44.714667c-43.264-44.330667-67.285333-94.293333-50.773333-146.176 10.453333-32.768 25.173333-49.621333 38.656-62.293333l5.034667-4.693334c8.576-7.936 10.965333-10.154667 13.354666-16.64 0.64-1.706667 1.194667-5.077333 0.853334-14.506666l-0.128-4.096a192.682667 192.682667 0 0 1 0.512-30.72c1.706667-14.677333 6.485333-30.72 18.005333-46.464 11.264-15.36 27.562667-28.629333 49.578667-40.149334l14.848 28.330667-14.848-28.330667c36.565333-19.2 77.226667-15.658667 117.717333 2.218667 39.808 17.578667 82.517333 50.261333 127.872 95.402667a32 32 0 1 1-45.098667 45.397333c-42.922667-42.666667-79.104-69.205333-108.672-82.261333z" fill="#2c2c2c" fill-opacity=".85" p-id="27795"></path></svg>